<svg width="549" height="140" viewBox="0 0 549 140" fill="none" xmlns="http://www.w3.org/2000/svg">
<path d="M157.375 46.3626H169.85V106.291C169.85 111.836 168.673 116.545 166.318 120.419C163.964 124.292 160.679 127.236 156.463 129.248C152.248 131.299 147.368 132.325 141.823 132.325C139.468 132.325 136.848 131.983 133.962 131.299C131.113 130.616 128.341 129.514 125.645 127.995C122.986 126.514 120.764 124.558 118.98 122.128L125.417 114.038C127.619 116.659 130.05 118.577 132.708 119.792C135.367 121.007 138.158 121.615 141.082 121.615C144.234 121.615 146.912 121.026 149.115 119.849C151.355 118.71 153.083 117.02 154.299 114.779C155.514 112.538 156.121 109.804 156.121 106.576V60.3193L157.375 46.3626ZM115.505 77.8649V76.6686C115.505 71.9974 116.074 67.7439 117.214 63.9082C118.353 60.0345 119.986 56.7115 122.113 53.9391C124.239 51.1288 126.822 48.9831 129.86 47.502C132.898 45.9829 136.335 45.2233 140.171 45.2233C144.159 45.2233 147.558 45.9449 150.368 47.388C153.216 48.8312 155.59 50.9009 157.489 53.5973C159.387 56.2557 160.869 59.4459 161.932 63.1676C163.033 66.8515 163.85 70.953 164.382 75.4723V79.2891C163.888 83.6944 163.052 87.7201 161.875 91.3659C160.698 95.0117 159.141 98.1638 157.204 100.822C155.267 103.481 152.874 105.531 150.026 106.975C147.216 108.418 143.893 109.139 140.057 109.139C136.297 109.139 132.898 108.361 129.86 106.804C126.86 105.247 124.277 103.063 122.113 100.253C119.986 97.4423 118.353 94.1382 117.214 90.3405C116.074 86.5048 115.505 82.3462 115.505 77.8649ZM129.233 76.6686V77.8649C129.233 80.6752 129.499 83.2957 130.031 85.7262C130.601 88.1568 131.455 90.3025 132.594 92.1634C133.772 93.9863 135.253 95.4295 137.038 96.4928C138.861 97.5182 141.006 98.0309 143.475 98.0309C146.703 98.0309 149.342 97.3473 151.393 95.9801C153.482 94.613 155.077 92.771 156.178 90.4544C157.318 88.0998 158.115 85.4794 158.571 82.5931V72.2822C158.343 70.0416 157.868 67.9528 157.147 66.0159C156.463 64.0791 155.533 62.3891 154.355 60.946C153.178 59.4648 151.697 58.3255 149.912 57.528C148.127 56.6925 146.019 56.2747 143.589 56.2747C141.12 56.2747 138.975 56.8064 137.152 57.8698C135.329 58.9332 133.829 60.3953 132.651 62.2562C131.512 64.1171 130.658 66.2818 130.088 68.7503C129.518 71.2189 129.233 73.8583 129.233 76.6686ZM198.789 46.3626V108H185.003V46.3626H198.789ZM184.092 30.1842C184.092 28.0955 184.775 26.3675 186.143 25.0003C187.548 23.5952 189.485 22.8926 191.953 22.8926C194.384 22.8926 196.302 23.5952 197.707 25.0003C199.112 26.3675 199.814 28.0955 199.814 30.1842C199.814 32.235 199.112 33.944 197.707 35.3112C196.302 36.6784 194.384 37.362 191.953 37.362C189.485 37.362 187.548 36.6784 186.143 35.3112C184.775 33.944 184.092 32.235 184.092 30.1842ZM233.88 97.1195L248.976 46.3626H263.218L241.799 108H232.912L233.88 97.1195ZM222.316 46.3626L237.697 97.3473L238.438 108H229.551L208.018 46.3626H222.316Z" fill="url(#paint0_linear_1067_7)"/>
<path d="M298.081 109.139C293.524 109.139 289.403 108.399 285.719 106.918C282.074 105.399 278.959 103.291 276.377 100.594C273.832 97.898 271.877 94.7269 270.509 91.0811C269.142 87.4352 268.459 83.5046 268.459 79.2891V77.0104C268.459 72.1873 269.161 67.8199 270.566 63.9082C271.972 59.9965 273.927 56.6545 276.434 53.8822C278.94 51.0718 281.903 48.9261 285.321 47.445C288.739 45.9639 292.441 45.2233 296.429 45.2233C300.834 45.2233 304.689 45.9639 307.993 47.445C311.297 48.9261 314.032 51.0149 316.196 53.7113C318.399 56.3697 320.032 59.5408 321.095 63.2246C322.197 66.9084 322.747 70.972 322.747 75.4154V81.2829H275.124V71.4277H309.189V70.3454C309.114 67.8768 308.62 65.5602 307.708 63.3955C306.835 61.2308 305.487 59.4838 303.664 58.1546C301.841 56.8254 299.41 56.1608 296.372 56.1608C294.093 56.1608 292.062 56.6545 290.277 57.6419C288.53 58.5914 287.068 59.9775 285.89 61.8005C284.713 63.6234 283.802 65.8261 283.156 68.4085C282.548 70.953 282.244 73.8203 282.244 77.0104V79.2891C282.244 81.9855 282.605 84.492 283.327 86.8086C284.086 89.0872 285.188 91.0811 286.631 92.79C288.074 94.499 289.821 95.8472 291.872 96.8346C293.923 97.7841 296.258 98.2588 298.879 98.2588C302.183 98.2588 305.126 97.5942 307.708 96.265C310.291 94.9358 312.531 93.0559 314.43 90.6253L321.665 97.6322C320.336 99.569 318.608 101.43 316.481 103.215C314.354 104.962 311.753 106.386 308.677 107.487C305.639 108.589 302.107 109.139 298.081 109.139ZM352.712 97.1195L367.808 46.3626H382.049L360.63 108H351.743L352.712 97.1195ZM341.147 46.3626L356.528 97.3473L357.269 108H348.382L326.849 46.3626H341.147ZM416.912 109.139C412.355 109.139 408.235 108.399 404.551 106.918C400.905 105.399 397.791 103.291 395.208 100.594C392.664 97.898 390.708 94.7269 389.341 91.0811C387.974 87.4352 387.29 83.5046 387.29 79.2891V77.0104C387.29 72.1873 387.993 67.8199 389.398 63.9082C390.803 59.9965 392.759 56.6545 395.265 53.8822C397.772 51.0718 400.734 48.9261 404.152 47.445C407.57 45.9639 411.273 45.2233 415.26 45.2233C419.666 45.2233 423.521 45.9639 426.825 47.445C430.129 48.9261 432.863 51.0149 435.028 53.7113C437.23 56.3697 438.863 59.5408 439.927 63.2246C441.028 66.9084 441.579 70.972 441.579 75.4154V81.2829H393.955V71.4277H428.021V70.3454C427.945 67.8768 427.451 65.5602 426.54 63.3955C425.666 61.2308 424.318 59.4838 422.495 58.1546C420.672 56.8254 418.242 56.1608 415.203 56.1608C412.925 56.1608 410.893 56.6545 409.108 57.6419C407.361 58.5914 405.899 59.9775 404.722 61.8005C403.544 63.6234 402.633 65.8261 401.987 68.4085C401.38 70.953 401.076 73.8203 401.076 77.0104V79.2891C401.076 81.9855 401.437 84.492 402.158 86.8086C402.918 89.0872 404.019 91.0811 405.462 92.79C406.905 94.499 408.652 95.8472 410.703 96.8346C412.754 97.7841 415.09 98.2588 417.71 98.2588C421.014 98.2588 423.957 97.5942 426.54 96.265C429.122 94.9358 431.363 93.0559 433.262 90.6253L440.496 97.6322C439.167 99.569 437.439 101.43 435.313 103.215C433.186 104.962 430.584 106.386 427.508 107.487C424.47 108.589 420.938 109.139 416.912 109.139ZM466.074 58.0977V108H452.345V46.3626H465.448L466.074 58.0977ZM484.93 45.9639L484.816 58.7243C483.981 58.5724 483.069 58.4584 482.082 58.3825C481.132 58.3065 480.183 58.2686 479.233 58.2686C476.879 58.2686 474.809 58.6103 473.024 59.2939C471.239 59.9396 469.739 60.889 468.524 62.1423C467.346 63.3575 466.435 64.8386 465.789 66.5856C465.144 68.3326 464.764 70.2884 464.65 72.4531L461.517 72.681C461.517 68.8073 461.897 65.2184 462.656 61.9144C463.416 58.6103 464.555 55.7051 466.074 53.1986C467.631 50.6921 469.568 48.7362 471.885 47.3311C474.239 45.9259 476.955 45.2233 480.031 45.2233C480.866 45.2233 481.759 45.2993 482.708 45.4512C483.696 45.6031 484.436 45.774 484.93 45.9639ZM512.445 101.278L529.193 46.3626H543.89L519.167 117.399C518.597 118.919 517.856 120.571 516.945 122.355C516.034 124.14 514.837 125.83 513.356 127.425C511.913 129.058 510.109 130.369 507.944 131.356C505.78 132.382 503.159 132.894 500.083 132.894C498.868 132.894 497.69 132.78 496.551 132.552C495.45 132.363 494.405 132.154 493.418 131.926L493.361 121.444C493.741 121.482 494.197 121.52 494.728 121.558C495.298 121.596 495.754 121.615 496.095 121.615C498.374 121.615 500.273 121.33 501.792 120.76C503.311 120.229 504.545 119.355 505.495 118.14C506.482 116.925 507.318 115.292 508.001 113.241L512.445 101.278ZM502.988 46.3626L517.629 92.5052L520.078 106.975L510.565 109.424L488.177 46.3626H502.988Z" fill="black" fill-opacity="0.8"/>
<path d="M18.769 114.546C12.2351 114.561 8.96808 114.568 6.46964 113.302C4.27195 112.188 2.48323 110.407 1.35986 108.214C0.0827567 105.722 0.0755346 102.455 0.0610902 95.9208L0.0412254 86.9349C0.0267811 80.401 0.0195589 77.1341 1.28563 74.6356C2.3993 72.4379 4.18012 70.6492 6.37287 69.5258C8.86569 68.2487 12.1327 68.2415 18.6666 68.2271L31.4231 68.1989C37.957 68.1844 41.224 68.1772 43.7224 69.4433C45.9201 70.5569 47.7089 72.3378 48.8322 74.5305C50.1093 77.0233 50.1166 80.2903 50.131 86.8242L50.1921 114.477L18.769 114.546Z" fill="black" fill-opacity="0.8"/>
<g filter="url(#filter0_d_1067_7)">
<path d="M26.9739 53.769C26.9594 47.2351 26.9522 43.9681 28.2183 41.4696C29.332 39.2719 31.1128 37.4832 33.3055 36.3599C35.7983 35.0828 39.0653 35.0755 45.5992 35.0611L54.5851 35.0412C61.119 35.0268 64.386 35.0196 66.8844 36.2856C69.0821 37.3993 70.8708 39.1801 71.9942 41.3729C73.2713 43.8657 73.2785 47.1326 73.293 53.6666L73.386 95.7375C73.4004 102.271 73.4076 105.538 72.1416 108.037C71.0279 110.235 69.2471 112.023 67.0543 113.147C64.5615 114.424 61.2945 114.431 54.7606 114.445L27.1082 114.506L26.9739 53.769Z" fill="url(#paint1_linear_1067_7)"/>
</g>
<defs>
<filter id="filter0_d_1067_7" x="-258.862" y="-180.795" width="489.751" height="522.801" filterUnits="userSpaceOnUse" color-interpolation-filters="sRGB">
<feFlood flood-opacity="0" result="BackgroundImageFix"/>
<feColorMatrix in="SourceAlpha" type="matrix" values="0 0 0 0 0 0 0 0 0 0 0 0 0 0 0 0 0 0 127 0" result="hardAlpha"/>
<feOffset dx="-64.1667" dy="5.83333"/>
<feGaussianBlur stdDeviation="110.833"/>
<feComposite in2="hardAlpha" operator="out"/>
<feColorMatrix type="matrix" values="0 0 0 0 1 0 0 0 0 1 0 0 0 0 1 0 0 0 0.25 0"/>
<feBlend mode="normal" in2="BackgroundImageFix" result="effect1_dropShadow_1067_7"/>
<feBlend mode="normal" in="SourceGraphic" in2="effect1_dropShadow_1067_7" result="shape"/>
</filter>
<linearGradient id="paint0_linear_1067_7" x1="110.833" y1="105" x2="334.132" y2="35.6949" gradientUnits="userSpaceOnUse">
<stop stop-color="#3BB34B"/>
<stop offset="1" stop-color="#8CC541"/>
</linearGradient>
<linearGradient id="paint1_linear_1067_7" x1="30.5158" y1="48.3274" x2="67.9036" y2="100.116" gradientUnits="userSpaceOnUse">
<stop stop-color="#3BB34B"/>
<stop offset="1" stop-color="#8CC541"/>
</linearGradient>
</defs>
</svg>
